<svg width="173" height="40" viewBox="0 0 173 40" fill="none" xmlns="http://www.w3.org/2000/svg">
<path d="M20 40C31.0457 40 40 31.0457 40 20C40 8.95431 31.0457 0 20 0C8.95431 0 0 8.95431 0 20C0 31.0457 8.95431 40 20 40Z" fill="#334858"/>
<path d="M30.1974 6.44736H25.7895C24.1448 6.44736 22.6316 7.17104 21.6448 8.48683C20.9211 9.40789 20.5264 10.5263 20.5264 11.7105V16.1184C19.7369 15.7237 18.75 15.4605 17.829 15.4605C17.829 15.4605 14.6053 15.4605 12.829 15.4605C12.1711 15.4605 11.6448 15.9868 11.6448 16.6447V21.3816C11.6448 24.671 14.1448 27.5658 17.3685 27.7631C20.9211 28.0263 23.9474 25.1974 23.9474 21.6447V11.0526C23.9474 10.3947 24.4737 9.86841 25.1316 9.86841C25.7895 9.86841 26.3158 10.3947 26.3158 11.0526V21.5131C26.3158 26.25 22.4343 30.1316 17.6974 30.1316C14.7369 30.1316 12.1053 28.6184 10.5264 26.25C9.86847 25.2632 8.48689 25.2632 7.76321 26.1842C7.30268 26.7763 7.23689 27.5658 7.63163 28.1579C9.86847 31.4474 13.6185 33.6184 17.9606 33.5526C24.5395 33.421 29.7369 27.7631 29.7369 21.1842C29.7369 21.1842 29.7369 12.3684 29.7369 10.3289C29.7369 10.0658 29.8685 9.80262 30 9.53946L30.9869 8.42104C31.7106 7.63157 31.1843 6.44736 30.1974 6.44736ZM18.6843 24.2105C16.7764 24.8026 15.1316 23.2237 15.1316 21.4474V18.8816H17.6316C19.4079 18.8816 20.9869 20.5263 20.3948 22.4342C20.1974 23.2895 19.4737 23.9474 18.6843 24.2105Z" fill="white"/>
<mask id="mask0" mask-type="alpha" maskUnits="userSpaceOnUse" x="7" y="6" width="25" height="28">
<path d="M30.1974 6.44736H25.7895C24.1448 6.44736 22.6316 7.17104 21.6448 8.48683C20.9211 9.40789 20.5264 10.5263 20.5264 11.7105V16.1184C19.7369 15.7237 18.75 15.4605 17.829 15.4605C17.829 15.4605 14.6053 15.4605 12.829 15.4605C12.1711 15.4605 11.6448 15.9868 11.6448 16.6447V21.3816C11.6448 24.671 14.1448 27.5658 17.3685 27.7631C20.9211 28.0263 23.9474 25.1974 23.9474 21.6447V11.0526C23.9474 10.3947 24.4737 9.86841 25.1316 9.86841C25.7895 9.86841 26.3158 10.3947 26.3158 11.0526V21.5131C26.3158 26.25 22.4343 30.1316 17.6974 30.1316C14.7369 30.1316 12.1053 28.6184 10.5264 26.25C9.86847 25.2632 8.48689 25.2632 7.76321 26.1842C7.30268 26.7763 7.23689 27.5658 7.63163 28.1579C9.86847 31.4474 13.6185 33.6184 17.9606 33.5526C24.5395 33.421 29.7369 27.7631 29.7369 21.1842C29.7369 21.1842 29.7369 12.3684 29.7369 10.3289C29.7369 10.0658 29.8685 9.80262 30 9.53946L30.9869 8.42104C31.7106 7.63157 31.1843 6.44736 30.1974 6.44736ZM18.6843 24.2105C16.7764 24.8026 15.1316 23.2237 15.1316 21.4474V18.8816H17.6316C19.4079 18.8816 20.9869 20.5263 20.3948 22.4342C20.1974 23.2895 19.4737 23.9474 18.6843 24.2105Z" fill="white"/>
</mask>
<g mask="url(#mask0)">
<path d="M31.5789 13.8815C24.8684 24.4736 13.0921 20.7236 11.1842 28.3552C10.1315 32.5 14.2105 37.0394 21.3815 34.8684C32.1052 31.5131 34.3421 9.53944 31.5789 13.8815Z" fill="#2AD6CE"/>
</g>
<path d="M52.1 13H58C59.48 13 60.7933 13.2933 61.94 13.88C63.0867 14.4667 63.9733 15.2933 64.6 16.36C65.24 17.4133 65.56 18.6267 65.56 20C65.56 21.3733 65.24 22.5933 64.6 23.66C63.9733 24.7133 63.0867 25.5333 61.94 26.12C60.7933 26.7067 59.48 27 58 27H52.1V13ZM57.88 25.26C59.0133 25.26 60.0067 25.04 60.86 24.6C61.7267 24.16 62.3933 23.5467 62.86 22.76C63.3267 21.96 63.56 21.04 63.56 20C63.56 18.96 63.3267 18.0467 62.86 17.26C62.3933 16.46 61.7267 15.84 60.86 15.4C60.0067 14.96 59.0133 14.74 57.88 14.74H54.1V25.26H57.88ZM77.9234 21.76C77.9234 21.9067 77.9101 22.1 77.8834 22.34H69.2834C69.4034 23.2733 69.8101 24.0267 70.5034 24.6C71.2101 25.16 72.0834 25.44 73.1234 25.44C74.3901 25.44 75.4101 25.0133 76.1834 24.16L77.2434 25.4C76.7634 25.96 76.1634 26.3867 75.4434 26.68C74.7368 26.9733 73.9434 27.12 73.0634 27.12C71.9434 27.12 70.9501 26.8933 70.0834 26.44C69.2168 25.9733 68.5434 25.3267 68.0634 24.5C67.5968 23.6733 67.3634 22.74 67.3634 21.7C67.3634 20.6733 67.5901 19.7467 68.0434 18.92C68.5101 18.0933 69.1434 17.4533 69.9434 17C70.7568 16.5333 71.6701 16.3 72.6834 16.3C73.6968 16.3 74.5968 16.5333 75.3834 17C76.1834 17.4533 76.8034 18.0933 77.2434 18.92C77.6968 19.7467 77.9234 20.6933 77.9234 21.76ZM72.6834 17.92C71.7634 17.92 70.9901 18.2 70.3634 18.76C69.7501 19.32 69.3901 20.0533 69.2834 20.96H76.0834C75.9768 20.0667 75.6101 19.34 74.9834 18.78C74.3701 18.2067 73.6034 17.92 72.6834 17.92ZM89.7742 16.4L85.1342 27H83.1742L78.5342 16.4H80.5342L84.1742 24.9L87.8942 16.4H89.7742ZM99.0172 27.16C98.1772 27.16 97.3972 26.9867 96.6772 26.64C95.9572 26.28 95.3772 25.78 94.9372 25.14L96.0972 23.78C96.8705 24.8867 97.8439 25.44 99.0172 25.44C99.8039 25.44 100.397 25.2 100.797 24.72C101.211 24.24 101.417 23.5333 101.417 22.6V14.74H96.3572V13H103.397V22.5C103.397 24.0467 103.024 25.2133 102.277 26C101.544 26.7733 100.457 27.16 99.0172 27.16ZM111.731 27.12C110.678 27.12 109.731 26.8867 108.891 26.42C108.051 25.9533 107.391 25.3133 106.911 24.5C106.444 23.6733 106.211 22.74 106.211 21.7C106.211 20.66 106.444 19.7333 106.911 18.92C107.391 18.0933 108.051 17.4533 108.891 17C109.731 16.5333 110.678 16.3 111.731 16.3C112.784 16.3 113.724 16.5333 114.551 17C115.391 17.4533 116.044 18.0933 116.511 18.92C116.991 19.7333 117.231 20.66 117.231 21.7C117.231 22.74 116.991 23.6733 116.511 24.5C116.044 25.3133 115.391 25.9533 114.551 26.42C113.724 26.8867 112.784 27.12 111.731 27.12ZM111.731 25.44C112.411 25.44 113.018 25.2867 113.551 24.98C114.098 24.66 114.524 24.22 114.831 23.66C115.138 23.0867 115.291 22.4333 115.291 21.7C115.291 20.9667 115.138 20.32 114.831 19.76C114.524 19.1867 114.098 18.7467 113.551 18.44C113.018 18.1333 112.411 17.98 111.731 17.98C111.051 17.98 110.438 18.1333 109.891 18.44C109.358 18.7467 108.931 19.1867 108.611 19.76C108.304 20.32 108.151 20.9667 108.151 21.7C108.151 22.4333 108.304 23.0867 108.611 23.66C108.931 24.22 109.358 24.66 109.891 24.98C110.438 25.2867 111.051 25.44 111.731 25.44ZM129.766 16.4V27H127.946V25.4C127.56 25.9467 127.046 26.3733 126.406 26.68C125.78 26.9733 125.093 27.12 124.346 27.12C122.933 27.12 121.82 26.7333 121.006 25.96C120.193 25.1733 119.786 24.02 119.786 22.5V16.4H121.706V22.28C121.706 23.3067 121.953 24.0867 122.446 24.62C122.94 25.14 123.646 25.4 124.566 25.4C125.58 25.4 126.38 25.0933 126.966 24.48C127.553 23.8667 127.846 23 127.846 21.88V16.4H129.766ZM135.262 18.18C135.595 17.5667 136.088 17.1 136.742 16.78C137.395 16.46 138.188 16.3 139.122 16.3V18.16C139.015 18.1467 138.868 18.14 138.682 18.14C137.642 18.14 136.822 18.4533 136.222 19.08C135.635 19.6933 135.342 20.5733 135.342 21.72V27H133.422V16.4H135.262V18.18ZM147.148 16.3C148.495 16.3 149.561 16.6933 150.348 17.48C151.148 18.2533 151.548 19.3933 151.548 20.9V27H149.628V21.12C149.628 20.0933 149.381 19.32 148.888 18.8C148.395 18.28 147.688 18.02 146.768 18.02C145.728 18.02 144.908 18.3267 144.308 18.94C143.708 19.54 143.408 20.4067 143.408 21.54V27H141.488V16.4H143.328V18C143.715 17.4533 144.235 17.0333 144.888 16.74C145.555 16.4467 146.308 16.3 147.148 16.3ZM158.961 16.3C160.428 16.3 161.548 16.66 162.321 17.38C163.108 18.1 163.501 19.1733 163.501 20.6V27H161.681V25.6C161.361 26.0933 160.901 26.4733 160.301 26.74C159.715 26.9933 159.015 27.12 158.201 27.12C157.015 27.12 156.061 26.8333 155.341 26.26C154.635 25.6867 154.281 24.9333 154.281 24C154.281 23.0667 154.621 22.32 155.301 21.76C155.981 21.1867 157.061 20.9 158.541 20.9H161.581V20.52C161.581 19.6933 161.341 19.06 160.861 18.62C160.381 18.18 159.675 17.96 158.741 17.96C158.115 17.96 157.501 18.0667 156.901 18.28C156.301 18.48 155.795 18.7533 155.381 19.1L154.581 17.66C155.128 17.22 155.781 16.8867 156.541 16.66C157.301 16.42 158.108 16.3 158.961 16.3ZM158.521 25.64C159.255 25.64 159.888 25.48 160.421 25.16C160.955 24.8267 161.341 24.36 161.581 23.76V22.28H158.621C156.995 22.28 156.181 22.8267 156.181 23.92C156.181 24.4533 156.388 24.8733 156.801 25.18C157.215 25.4867 157.788 25.64 158.521 25.64ZM167.054 12.16H168.974V27H167.054V12.16Z" fill="#334858"/>
</svg>
