<svg width="92" height="106" viewBox="0 0 92 106" fill="none" xmlns="http://www.w3.org/2000/svg">
<g clip-path="url(#clip0)">
<path d="M90.7113 21.3677L33.4323 49.5603L32.006 56.3071L35.783 82.5583L90.7113 21.3677Z" fill="#2AD6CE"/>
<path d="M40.8861 64.5943L35.783 82.5582L46.2829 70.8613L40.8861 64.5943Z" fill="#2AD6CE"/>
<path d="M90.7119 21.3674L60.6831 87.5802L40.8857 64.5952L90.7119 21.3674Z" fill="#2AD6CE"/>
<path d="M56.6068 69.7896C56.1387 70.1968 55.4279 70.1497 55.0184 69.6816L46.3999 59.8123L48.0984 58.3388L56.7125 68.2014C57.1218 68.6694 57.0746 69.3803 56.6068 69.7896Z" fill="white"/>
<path d="M60.1093 66.0395C59.6415 66.4489 58.9306 66.3994 58.5211 65.9315L50.2557 56.467L51.9542 54.9913L60.2152 64.4512C60.6246 64.9191 60.5774 65.63 60.1093 66.0395Z" fill="white"/>
<path d="M63.6121 62.2893C63.1442 62.6988 62.4332 62.6514 62.0238 62.1836L54.1117 53.1219L55.8102 51.646L63.72 60.7033C64.1273 61.1712 64.0799 61.8822 63.6121 62.2893Z" fill="white"/>
<path d="M67.1149 58.5413C66.6469 58.9485 65.936 58.9012 65.5266 58.4333L57.9677 49.7765L59.6662 48.303L67.2229 56.953C67.6301 57.4209 67.5828 58.1319 67.1149 58.5413Z" fill="white"/>
<path d="M70.6177 54.7911C70.1497 55.2005 69.4389 55.1511 69.0316 54.6831L61.8236 46.4312L63.5222 44.9554L70.7257 53.2028C71.1328 53.6707 71.0856 54.3817 70.6177 54.7911Z" fill="white"/>
<path d="M72.6962 43.3245C72.2284 43.7338 71.5175 43.6844 71.108 43.2164L68.7031 40.4628L70.4016 38.9871L72.8043 41.7384C73.2114 42.2064 73.1643 42.915 72.6962 43.3245Z" fill="white"/>
<path d="M32.006 56.1581L90.7114 21.3687L9.69678 41.3321L32.006 56.1581Z" fill="#2AD6CE"/>
<path d="M44.3643 39.2584H32.0061C24.2025 39.2584 17.8763 32.9323 17.8763 25.1285C17.8763 17.3247 24.2025 10.9987 32.0061 10.9987C39.8098 10.9987 46.136 17.3247 46.136 25.1285V37.4866C46.1357 38.4653 45.3425 39.2584 44.3643 39.2584Z" fill="#776CF7"/>
<path d="M38.4697 27.2275C39.6289 27.2275 40.5686 26.2878 40.5686 25.1285C40.5686 23.9693 39.6289 23.0296 38.4697 23.0296C37.3104 23.0296 36.3707 23.9693 36.3707 25.1285C36.3707 26.2878 37.3104 27.2275 38.4697 27.2275Z" fill="white"/>
<path d="M32.0059 27.2275C33.1652 27.2275 34.1048 26.2878 34.1048 25.1285C34.1048 23.9693 33.1652 23.0296 32.0059 23.0296C30.8466 23.0296 29.907 23.9693 29.907 25.1285C29.907 26.2878 30.8466 27.2275 32.0059 27.2275Z" fill="white"/>
<path d="M25.5423 27.2275C26.7016 27.2275 27.6412 26.2878 27.6412 25.1285C27.6412 23.9693 26.7016 23.0296 25.5423 23.0296C24.383 23.0296 23.4434 23.9693 23.4434 25.1285C23.4434 26.2878 24.383 27.2275 25.5423 27.2275Z" fill="white"/>
<path fill-rule="evenodd" clip-rule="evenodd" d="M39.146 53.1235C40.6104 53.1235 41.7975 51.9363 41.7975 50.4719C41.7975 49.0075 40.6104 47.8203 39.146 47.8203C37.6816 47.8203 36.4944 49.0075 36.4944 50.4719C36.4944 51.9363 37.6816 53.1235 39.146 53.1235Z" stroke="#2AD6CE" stroke-width="2"/>
<path d="M91.8322 21.3051C91.8302 21.2697 91.8253 21.2349 91.8199 21.2C91.8156 21.1712 91.8118 21.1424 91.8053 21.1135C91.7962 21.0749 91.7834 21.0373 91.7704 20.9998C91.7636 20.9804 91.7605 20.9608 91.7526 20.9416C91.7506 20.9367 91.7474 20.9325 91.7451 20.9275C91.7279 20.8865 91.7059 20.8476 91.6836 20.809C91.673 20.7905 91.6645 20.7707 91.6528 20.753C91.6282 20.7154 91.5988 20.6808 91.5695 20.6459C91.5565 20.6303 91.5454 20.6131 91.5317 20.5983C91.5063 20.5714 91.4766 20.548 91.4483 20.5232C91.4271 20.5048 91.4078 20.4841 91.3852 20.4672L91.3837 20.466C91.3533 20.4432 91.3204 20.4263 91.2887 20.4072C91.2653 20.3932 91.2438 20.3766 91.2195 20.3642C91.1614 20.3347 91.1013 20.3104 91.0402 20.2918C91.0244 20.287 91.0076 20.2855 90.9916 20.2812C90.9454 20.2693 90.8994 20.2578 90.8523 20.2518C90.8274 20.2486 90.8017 20.2498 90.7765 20.2481C90.7369 20.2459 90.6975 20.2427 90.6579 20.2445C90.6336 20.2456 90.6095 20.2506 90.585 20.2533C90.5432 20.2581 90.5016 20.263 90.4607 20.2722C90.4544 20.2735 90.4482 20.2735 90.4419 20.2752L47.2604 30.9162V25.1284C47.2604 16.7169 40.4173 9.87347 32.0057 9.87347C23.5942 9.87347 16.751 16.7169 16.751 25.1284C16.751 29.9346 18.9877 34.2261 22.4721 37.0242L9.42715 40.2389C8.99386 40.3457 8.66473 40.6982 8.58824 41.1378C8.51174 41.5775 8.70207 42.0208 9.07372 42.2676L24.637 52.6106L13.0455 65.3897C12.6282 65.85 12.6628 66.5613 13.1229 66.9787C13.3385 67.1741 13.6089 67.2704 13.8783 67.2704C14.1845 67.2704 14.4898 67.1461 14.7119 66.9013L26.532 53.8702L30.9397 56.7995L34.6688 82.7181C34.6711 82.7332 34.6765 82.7467 34.6793 82.7615C34.6862 82.7994 34.695 82.8363 34.7057 82.8729C34.7139 82.9011 34.7224 82.9286 34.7327 82.9557C34.7451 82.9885 34.7599 83.0202 34.7753 83.0517C34.7885 83.079 34.8016 83.1057 34.8169 83.1316C34.8344 83.1613 34.8547 83.1892 34.8752 83.2173C34.8924 83.2412 34.9092 83.2652 34.9283 83.2878C34.951 83.3145 34.9766 83.3387 35.002 83.3633C35.0229 83.3835 35.0432 83.4044 35.0657 83.4232C35.0914 83.4446 35.1197 83.463 35.1476 83.4821C35.1739 83.5003 35.1995 83.519 35.2274 83.5349C35.2333 83.5383 35.2383 83.5429 35.2443 83.546C35.2886 83.57 35.3339 83.5906 35.3797 83.608C35.3899 83.6119 35.4005 83.6143 35.4105 83.618C35.457 83.6342 35.5037 83.6471 35.551 83.6571C35.5685 83.6609 35.5861 83.664 35.6041 83.6671C35.6596 83.676 35.7152 83.6817 35.7709 83.6823C35.7741 83.6823 35.7771 83.6832 35.7804 83.6832C35.8337 83.6832 35.8877 83.6791 35.942 83.6715C35.9552 83.6695 35.9669 83.6643 35.98 83.662C36.0148 83.6557 36.0486 83.646 36.0828 83.6365C36.1242 83.6249 36.165 83.6131 36.2038 83.5971C36.2342 83.5846 36.2632 83.5698 36.2924 83.5548C36.3323 83.5343 36.3707 83.5127 36.4076 83.488C36.434 83.4701 36.4592 83.451 36.4841 83.431C36.5208 83.4015 36.5548 83.3701 36.5872 83.3363C36.6 83.3233 36.6151 83.3136 36.6272 83.2996L46.1549 72.4366L54.607 82.2495L37.4949 101.115C37.0776 101.575 37.1122 102.286 37.5723 102.704C37.7878 102.899 38.0583 102.995 38.3277 102.995C38.6339 102.995 38.9392 102.871 39.1613 102.626L56.0861 83.9671L59.8298 88.3138C60.0451 88.5637 60.3573 88.7046 60.682 88.7046C60.7351 88.7046 60.7886 88.7006 60.842 88.6931C61.2219 88.6386 61.5479 88.3938 61.7065 88.0443L65.9105 78.7744C66.1671 78.2084 65.9163 77.5418 65.3505 77.2853C64.7845 77.0286 64.1181 77.2795 63.8614 77.8451L60.3848 85.511L42.4678 64.7091L87.5596 25.5886L66.984 70.9592C66.7274 71.5253 66.9782 72.1918 67.544 72.4483C68.1095 72.7045 68.7763 72.4538 69.0331 71.8886L91.7339 21.8317C91.7422 21.8135 91.7463 21.7946 91.7536 21.7761C91.7653 21.7467 91.776 21.7172 91.785 21.6868C91.795 21.6538 91.8024 21.6209 91.8091 21.5873C91.8151 21.5576 91.8205 21.5282 91.8242 21.4979C91.8282 21.4634 91.8298 21.4292 91.8305 21.3946C91.8331 21.3651 91.8339 21.3354 91.8322 21.3051ZM25.0611 38.7037C27.1459 39.7745 29.5054 40.3833 32.0059 40.3833H34.2013C34.8225 40.3833 35.3262 39.8798 35.3262 39.2584C35.3262 38.637 34.8225 38.1336 34.2013 38.1336H32.0059C24.835 38.1336 19.0009 32.2997 19.0009 25.1288C19.0009 17.9577 24.835 12.1236 32.0059 12.1236C39.1768 12.1236 45.0109 17.9577 45.0109 25.1288V37.4871C45.0109 37.8436 44.7209 38.1336 44.3644 38.1336H41.774C41.1529 38.1336 40.6492 38.637 40.6492 39.2584C40.6492 39.8798 41.1529 40.3833 41.774 40.3833H44.3644C45.9614 40.3833 47.2606 39.0841 47.2606 37.4871V33.2336L83.588 24.2816L32.0401 54.8295L12.4507 41.8111L25.0611 38.7037ZM44.6737 70.7156L38.2292 78.0633L41.3972 66.9116L44.6737 70.7156ZM40.1612 63.7341L40.1598 63.7355L40.1489 63.7449C40.1318 63.7598 40.1192 63.7777 40.1032 63.7935C40.0678 63.8282 40.0321 63.8622 40.0013 63.9015C39.9784 63.9308 39.961 63.9627 39.9412 63.9936C39.9216 64.0243 39.9002 64.0533 39.8836 64.0862C39.8607 64.1314 39.8447 64.1787 39.8282 64.2261C39.8211 64.247 39.8102 64.2655 39.8042 64.2872L39.8006 64.3001L36.1444 77.1704L33.2068 56.7533L80.54 28.7029L40.1612 63.7341Z" fill="#2C248D"/>
<path d="M40.946 89.2215C40.4858 88.8039 39.7744 88.8385 39.3571 89.2989L27.0517 102.865C26.6344 103.325 26.669 104.037 27.1291 104.454C27.3446 104.65 27.6151 104.746 27.8845 104.746C28.1907 104.746 28.496 104.621 28.7181 104.377L41.0234 90.8104C41.4409 90.3501 41.4063 89.6388 40.946 89.2215Z" fill="#2C248D"/>
<path d="M28.1813 70.219C27.721 69.8012 27.0096 69.8362 26.5923 70.2964L5.72195 93.3051C5.30465 93.7654 5.33929 94.4767 5.79935 94.894C6.01486 95.0895 6.28527 95.1858 6.55479 95.1858C6.86097 95.1858 7.16625 95.0614 7.3883 94.8167L28.2587 71.808C28.676 71.3474 28.6414 70.6361 28.1813 70.219Z" fill="#2C248D"/>
<path d="M24.565 80.1387L22.1562 82.7943C21.7389 83.2544 21.7737 83.9656 22.2336 84.3832C22.4492 84.5787 22.7196 84.675 22.9891 84.675C23.2954 84.675 23.6005 84.5505 23.8226 84.3058L26.2314 81.6502C26.6487 81.1903 26.6141 80.4789 26.154 80.0614C25.6937 79.6436 24.9823 79.6784 24.565 80.1387Z" fill="#2C248D"/>
<path d="M9.32556 63.2144L11.7343 60.5586C12.1516 60.0984 12.117 59.387 11.6569 58.9697C11.1966 58.5519 10.4853 58.5868 10.068 59.0471L7.65922 61.7028C7.2419 62.1631 7.27654 62.8745 7.73661 63.2918C7.95213 63.4872 8.22254 63.5836 8.49206 63.5836C8.79823 63.5834 9.10351 63.4592 9.32556 63.2144Z" fill="#2C248D"/>
<path fill-rule="evenodd" clip-rule="evenodd" d="M3.91002 77.0336C5.37445 77.0336 6.5616 75.8464 6.5616 74.382C6.5616 72.9175 5.37445 71.7303 3.91002 71.7303C2.44559 71.7303 1.25842 72.9175 1.25842 74.382C1.25842 75.8464 2.44559 77.0336 3.91002 77.0336Z" stroke="#2AD6CE" stroke-width="2"/>
<path d="M83.2295 91.9518L78.1091 86.8315L72.9888 91.9518L78.1091 97.0722L83.2295 91.9518Z" fill="#4991E5"/>
<path d="M51.1346 6.62897H51.1346C52.9652 6.62897 54.4491 5.14502 54.4491 3.31448V3.31447C54.4491 1.48393 52.9652 -1.09673e-05 51.1346 -1.09673e-05H51.1346C49.3041 -1.09673e-05 47.8201 1.48393 47.8201 3.31447V3.31448C47.8201 5.14502 49.3041 6.62897 51.1346 6.62897Z" fill="#FFCD00"/>
<path d="M82.5953 78.3594H82.5953C84.4258 78.3594 85.9098 76.8754 85.9098 75.0449V75.0449C85.9098 73.2143 84.4258 71.7304 82.5953 71.7304H82.5953C80.7647 71.7304 79.2808 73.2143 79.2808 75.0449V75.0449C79.2808 76.8754 80.7647 78.3594 82.5953 78.3594Z" fill="#F5A623"/>
<path d="M67.2599 13.1266L63.4636 9.33026L59.6673 13.1266L63.4636 16.9229L67.2599 13.1266Z" stroke="#2C248D" stroke-width="2"/>
</g>
<defs>
<clipPath id="clip0">
<rect width="91.8652" height="105.708" fill="white"/>
</clipPath>
</defs>
</svg>
