<svg width="110" height="112" viewBox="0 0 110 112" fill="none" xmlns="http://www.w3.org/2000/svg">
<g clip-path="url(#clip0)">
<path d="M10.3805 107.477L5.81952 102.953L1.25852 107.477L5.81952 112L10.3805 107.477Z" fill="#2C248D"/>
<path d="M4.10909 70.8945H4.15784C5.77495 70.8945 7.08588 69.5836 7.08588 67.9665V67.9665C7.08588 66.3494 5.77495 65.0385 4.15784 65.0385H4.10909C2.49199 65.0385 1.18106 66.3494 1.18106 67.9665V67.9665C1.18106 69.5836 2.49199 70.8945 4.10909 70.8945Z" fill="#2AD6CE"/>
<path d="M107.425 66.4507L104.245 63.2971L101.066 66.4507L104.245 69.6043L107.425 66.4507Z" stroke="#2C248D" stroke-width="2"/>
<path d="M93.6013 41.5996V90.924C93.6013 96.1793 89.305 100.44 84.006 100.44H39.486V39.2205H91.2025C92.409 39.2205 93.4094 40.1056 93.575 41.257C93.5941 41.3688 93.6013 41.483 93.6013 41.5996Z" fill="#B7C5FF"/>
<path d="M93.6013 41.5996V54.0157L56.808 90.5053C56.1531 91.1548 55.371 91.6639 54.5075 92.0017L47.7331 94.6591C46.7568 95.0398 45.7901 94.0834 46.1763 93.1152L48.8534 86.3944C49.194 85.5403 49.7075 84.7623 50.3623 84.1129L93.5748 41.257C93.5941 41.3689 93.6013 41.483 93.6013 41.5996Z" fill="#9FB0FE"/>
<path d="M82.8065 100.44H25.4743C20.1754 100.44 15.8791 96.1793 15.8791 90.924V24.787C15.8791 23.4738 16.9537 22.4079 18.2779 22.4079H70.8123C72.1364 22.4079 73.2111 23.4738 73.2111 24.787V90.924C73.2111 96.1793 77.5074 100.44 82.8065 100.44Z" fill="white"/>
<path d="M73.2111 42.6695V24.787C73.2111 23.4738 72.1364 22.4079 70.8123 22.4079H18.2779C16.9537 22.4079 15.8791 23.4738 15.8791 24.787V42.6695H73.2111Z" fill="#FFCD00"/>
<path d="M73.2112 61.4526V74.2375L56.808 90.5053C56.1531 91.1548 55.371 91.6639 54.5075 92.0017L47.7331 94.6591C46.7568 95.0398 45.7901 94.0834 46.1763 93.1152L48.8534 86.3944C49.194 85.5403 49.7075 84.7624 50.3623 84.1129L73.2112 61.4526Z" fill="#D2DEFF"/>
<path d="M64.047 77.4709H24.6061C23.9436 77.4709 23.4067 76.9382 23.4067 76.2813C23.4067 75.6246 23.9436 75.0919 24.6061 75.0919H64.047C64.7096 75.0919 65.2464 75.6246 65.2464 76.2813C65.2464 76.9382 64.7096 77.4709 64.047 77.4709Z" fill="#2C248D"/>
<path d="M47.8891 88.5981H24.6063C23.9437 88.5981 23.4069 88.0654 23.4069 87.4085C23.4069 86.7517 23.9437 86.219 24.6063 86.219H47.8891C48.5516 86.219 49.0886 86.7517 49.0886 87.4085C49.0886 88.0654 48.5514 88.5981 47.8891 88.5981Z" fill="#2C248D"/>
<path d="M64.047 63.1966H24.606C23.9435 63.1966 23.4066 62.6639 23.4066 62.0071C23.4066 61.3502 23.9435 60.8175 24.606 60.8175H64.047C64.7094 60.8175 65.2464 61.3502 65.2464 62.0071C65.2464 62.6639 64.7094 63.1966 64.047 63.1966Z" fill="#2C248D"/>
<path d="M64.047 67.9547H24.606C23.9435 67.9547 23.4066 67.422 23.4066 66.7651C23.4066 66.1083 23.9435 65.5756 24.606 65.5756H64.047C64.7094 65.5756 65.2464 66.1083 65.2464 66.7651C65.2464 67.422 64.7094 67.9547 64.047 67.9547Z" fill="#2C248D"/>
<path d="M64.047 72.7128H24.606C23.9435 72.7128 23.4066 72.1802 23.4066 71.5233C23.4066 70.8664 23.9435 70.3339 24.606 70.3339H64.047C64.7094 70.3339 65.2464 70.8664 65.2464 71.5233C65.2464 72.1802 64.7094 72.7128 64.047 72.7128Z" fill="#2C248D"/>
<path d="M34.9468 48.9225H24.6061C23.9436 48.9225 23.4067 48.3898 23.4067 47.733C23.4067 47.0761 23.9436 46.5435 24.6061 46.5435H34.9468C35.6093 46.5435 36.1462 47.0761 36.1462 47.733C36.1462 48.3898 35.6093 48.9225 34.9468 48.9225Z" fill="#2C248D"/>
<path d="M34.9468 38.6927H24.6061C23.9436 38.6927 23.4067 38.16 23.4067 37.5031C23.4067 36.8464 23.9436 36.3137 24.6061 36.3137H34.9468C35.6093 36.3137 36.1462 36.8464 36.1462 37.5031C36.1462 38.16 35.6093 38.6927 34.9468 38.6927Z" fill="#2C248D"/>
<path d="M34.9468 34.3762H24.6061C23.9436 34.3762 23.4067 33.8435 23.4067 33.1867C23.4067 32.5298 23.9436 31.9971 24.6061 31.9971H34.9468C35.6093 31.9971 36.1462 32.5298 36.1462 33.1867C36.1462 33.8435 35.6093 34.3762 34.9468 34.3762Z" fill="#2C248D"/>
<path d="M62.8282 34.3762H60.4038C59.7412 34.3762 59.2043 33.8435 59.2043 33.1867C59.2043 32.5298 59.7412 31.9971 60.4038 31.9971H62.8282C63.4908 31.9971 64.0278 32.5298 64.0278 33.1867C64.0278 33.8435 63.4908 34.3762 62.8282 34.3762Z" fill="#2C248D"/>
<path d="M64.047 53.6806H24.6061C23.9436 53.6806 23.4067 53.1479 23.4067 52.4911C23.4067 51.8342 23.9436 51.3015 24.6061 51.3015H64.047C64.7096 51.3015 65.2464 51.8342 65.2464 52.4911C65.2464 53.1479 64.7096 53.6806 64.047 53.6806Z" fill="#2C248D"/>
<path d="M64.047 58.4387H24.6061C23.9436 58.4387 23.4067 57.906 23.4067 57.2492C23.4067 56.5923 23.9436 56.0596 24.6061 56.0596H64.047C64.7096 56.0596 65.2464 56.5923 65.2464 57.2492C65.2464 57.906 64.7096 58.4387 64.047 58.4387Z" fill="#2C248D"/>
<path d="M64.3734 40.8285C64.3734 38.5878 62.5352 36.7647 60.2757 36.7647C58.0163 36.7647 56.178 38.5878 56.178 40.8285C56.178 41.9338 56.6264 42.9359 57.3508 43.6693C56.6266 44.4026 56.178 45.4051 56.178 46.5101C56.178 47.1855 56.7302 47.7332 57.4112 47.7332C58.0923 47.7332 58.6445 47.1855 58.6445 46.5101C58.6445 45.6182 59.3764 44.8924 60.2757 44.8924C61.1751 44.8924 61.9068 45.618 61.9068 46.5101C61.9068 47.1855 62.4592 47.7332 63.1401 47.7332C63.8212 47.7332 64.3734 47.1855 64.3734 46.5101C64.3734 45.4051 63.925 44.4029 63.2006 43.6693C63.925 42.9359 64.3734 41.9336 64.3734 40.8285ZM60.2757 39.2108C61.1751 39.2108 61.9068 39.9364 61.9068 40.8285C61.9068 41.7204 61.1751 42.4463 60.2757 42.4463C59.3764 42.4463 58.6445 41.7206 58.6445 40.8285C58.6445 39.9364 59.3764 39.2108 60.2757 39.2108Z" fill="#2C248D"/>
<path d="M54.5085 85.8126L47.732 88.4679C46.7557 88.8505 45.7901 87.8927 46.1757 86.9246L48.853 80.2041C49.1937 79.3493 49.7075 78.5728 50.3629 77.9228L101.439 27.2683C103.219 25.503 106.105 25.503 107.885 27.2683C109.665 29.0335 109.665 31.8954 107.885 33.6608L56.8088 84.3151C56.1534 84.9649 55.3704 85.4749 54.5085 85.8126Z" fill="#2AD6CE"/>
<path d="M98.1729 30.5068L96.5615 32.1048L103.007 38.4973L104.619 36.8992L98.1729 30.5068Z" fill="#59B1C2"/>
<path d="M95.0675 33.5867L88.325 40.2734L94.7706 46.6659L101.513 39.9791L95.0675 33.5867Z" fill="#59B1C2"/>
<path d="M85.7772 47.5109L93.089 40.2595C93.5575 39.7949 94.317 39.795 94.7852 40.2595C95.2535 40.7238 95.2537 41.477 94.7852 41.9416L87.4734 49.1932C87.0049 49.6578 86.2454 49.6575 85.7772 49.1932C85.3089 48.7288 85.3089 47.9755 85.7772 47.5109Z" fill="#2C248D"/>
<path d="M99.6579 26.4273L87.9582 38.0304H80.3524C79.6901 38.0304 79.153 38.5628 79.153 39.2199C79.153 39.877 79.6901 40.4095 80.3524 40.4095H85.5593L73.4771 52.3917V24.7871C73.4771 22.8193 71.8629 21.2184 69.8789 21.2184H17.3445C15.3603 21.2184 13.7462 22.8193 13.7462 24.7871V90.9241C13.7462 96.8271 18.5887 101.63 24.5409 101.63H38.5528H81.8731H83.0725C89.0247 101.63 93.8672 96.8271 93.8672 90.9241V48.4187C93.8672 48.3878 93.8603 48.3587 93.8581 48.3282L107.8 34.5018C110.044 32.2757 110.044 28.6535 107.8 26.4273C105.555 24.2013 101.903 24.2008 99.6579 26.4273ZM91.4686 90.9241C91.4686 95.5153 87.7023 99.2506 83.0728 99.2506H81.8734C77.2437 99.2506 73.4774 95.5153 73.4774 90.9241V76.2814C73.4774 75.6243 72.9403 75.0918 72.278 75.0918C71.6157 75.0918 71.0786 75.6243 71.0786 76.2814V90.9241C71.0786 94.2835 72.647 97.2863 75.0956 99.2506H38.553H24.5412C19.9117 99.2506 16.1452 95.5153 16.1452 90.9241V24.7871C16.1452 24.1312 16.6833 23.5975 17.3448 23.5975H69.8792C70.5405 23.5975 71.0786 24.1312 71.0786 24.7871V54.7706L48.5821 77.0814C47.806 77.8508 47.208 78.7544 46.8048 79.7669L44.1275 86.4874C43.7705 87.3831 43.9753 88.3626 44.6622 89.0434C45.1255 89.5033 45.7262 89.7452 46.3453 89.7452C46.6438 89.7452 46.9464 89.6891 47.2399 89.5739L54.0163 86.9188C55.0368 86.5186 55.9479 85.9258 56.7242 85.1561L91.4689 50.698L91.4686 90.9241ZM106.104 32.8199L55.0277 83.4741C54.4851 84.0123 53.8482 84.427 53.1345 84.7065L46.358 87.3617L49.0357 80.6412C49.3175 79.9334 49.7354 79.302 50.278 78.7639L101.354 28.1093C102.009 27.4601 102.869 27.1354 103.729 27.1354C104.589 27.1354 105.449 27.4601 106.103 28.1093C107.413 29.408 107.413 31.5212 106.104 32.8199Z" fill="#2C248D"/>
<path d="M85.6731 23.697H85.7219C87.339 23.697 88.6499 22.386 88.6499 20.7689V20.7689C88.6499 19.1518 87.339 17.8409 85.7219 17.8409H85.6731C84.056 17.8409 82.7451 19.1518 82.7451 20.7689V20.7689C82.7451 22.386 84.056 23.697 85.6731 23.697Z" fill="#FECF12"/>
<path fill-rule="evenodd" clip-rule="evenodd" d="M78.0212 5.95433C79.3255 5.95433 80.383 4.90558 80.383 3.61189C80.383 2.31821 79.3255 1.26947 78.0212 1.26947C76.7167 1.26947 75.6592 2.31821 75.6592 3.61189C75.6592 4.90558 76.7167 5.95433 78.0212 5.95433Z" stroke="#2AD6CE" stroke-width="2"/>
</g>
<defs>
<clipPath id="clip0">
<rect width="109.483" height="112" fill="white"/>
</clipPath>
</defs>
</svg>
