<svg width="124" height="111" viewBox="0 0 124 111" fill="none" xmlns="http://www.w3.org/2000/svg">
<g clip-path="url(#clip0)">
<path fill-rule="evenodd" clip-rule="evenodd" d="M102.378 5.98082C103.682 5.98082 104.739 4.92367 104.739 3.61962C104.739 2.31556 103.682 1.25842 102.378 1.25842C101.074 1.25842 100.016 2.31556 100.016 3.61962C100.016 4.92367 101.074 5.98082 102.378 5.98082Z" stroke="#2AD6CE" stroke-width="2"/>
<path d="M119.364 107.992C117.354 110.002 114.095 110.002 112.085 107.992L79.342 75.2489L86.6205 67.9704L119.364 100.714C121.374 102.724 121.374 105.982 119.364 107.992Z" fill="#2AD6CE"/>
<path d="M100.941 82.2928L93.663 89.5712L96.8326 92.7409L104.111 85.4626L100.941 82.2928Z" fill="#FFCD00"/>
<path d="M86.6194 67.9706L79.3411 75.249L90.787 86.695L98.0653 79.4165L86.6194 67.9706Z" fill="#FFCD00"/>
<path d="M57.7998 87.7569C80.6249 87.7569 99.1283 69.2535 99.1283 46.4284C99.1283 23.6033 80.6249 5.09998 57.7998 5.09998C34.9748 5.09998 16.4714 23.6033 16.4714 46.4284C16.4714 69.2535 34.9748 87.7569 57.7998 87.7569Z" fill="#2AD6CE"/>
<path d="M16.5052 48.0856C16.6704 52.259 17.4547 56.2728 18.7682 60.0392H96.8317C98.1448 56.2728 98.9296 52.259 99.0947 48.0856H16.5052Z" fill="#59B1C2"/>
<path d="M57.7998 78.8026C75.6797 78.8026 90.1741 64.3082 90.1741 46.4284C90.1741 28.5486 75.6797 14.0541 57.7998 14.0541C39.9201 14.0541 25.4257 28.5486 25.4257 46.4284C25.4257 64.3082 39.9201 78.8026 57.7998 78.8026Z" fill="#F0EFFF"/>
<path d="M25.4694 48.0856C25.6842 52.3384 26.7192 56.3745 28.4199 60.0392H87.18C88.8807 56.3745 89.9159 52.3384 90.1306 48.0856H25.4694Z" fill="#59B1C2"/>
<path d="M40.8198 73.9949C41.237 73.58 70.9629 43.9033 85.3492 29.4205C83.21 25.963 80.4399 22.9372 77.1972 20.5067C75.6069 22.097 45.3941 52.3098 31.8783 65.8256C34.3152 69.0775 37.3508 71.8534 40.8198 73.9949Z" fill="white"/>
<path d="M49.6183 48.0856C45.4259 52.2781 41.2942 56.4099 37.6648 60.0392H54.7896C58.4924 56.3376 62.6136 52.2162 66.7401 48.0856H49.6183Z" fill="#59B1C2"/>
<path d="M63.8058 14.6137C60.5893 17.808 35.3533 42.961 25.9745 52.3655C26.3486 54.3857 26.9069 56.3415 27.6379 58.2113C41.6195 44.2296 55.6011 30.2479 69.5829 16.2663C67.734 15.5436 65.8021 14.988 63.8058 14.6137Z" fill="white"/>
<path d="M111.997 55.9397H3.7358C2.36041 55.9397 1.24548 54.8247 1.24548 53.4494V39.5533C1.24548 38.178 2.36041 37.063 3.7358 37.063H111.997C113.372 37.063 114.487 38.178 114.487 39.5533V53.4494C114.487 54.8247 113.372 55.9397 111.997 55.9397Z" fill="white"/>
<path d="M92.077 71.6662C95.2706 67.3295 97.6402 62.4047 99.0003 57.1849H111.997C114.056 57.1849 115.732 55.5092 115.732 53.4494V39.5534C115.732 37.4937 114.056 35.818 111.997 35.818H19.1379C21.3732 27.6698 26.2254 20.3182 32.8865 15.0263C40.0347 9.34702 48.6498 6.34544 57.8002 6.34544C73.4615 6.34544 87.7832 15.5554 94.2866 29.809C94.572 30.4346 95.311 30.7108 95.9366 30.4249C96.5621 30.1395 96.838 29.4009 96.5524 28.7751C89.6454 13.6366 74.4343 3.85486 57.8004 3.85486C48.0817 3.85486 38.9309 7.04347 31.3377 13.0761C24.0854 18.8377 18.8522 26.9005 16.5624 35.8177H3.73549C1.67573 35.8177 0 37.4935 0 39.5531V53.4492C0 55.509 1.67573 57.1847 3.73549 57.1847H16.5993C18.9085 66.0443 24.1248 74.0511 31.338 79.7811C38.9312 85.8134 48.0815 89.0019 57.7999 89.0019C67.0019 89.0019 75.6979 86.1392 83.0438 80.7115L111.205 108.873C112.451 110.119 114.088 110.742 115.725 110.742C117.362 110.742 118.998 110.119 120.244 108.873C122.736 106.381 122.736 102.325 120.244 99.8333L92.077 71.6662ZM32.887 77.8315C26.2655 72.5711 21.4315 65.275 19.1786 57.1849H23.2474C23.935 57.1849 24.4926 56.6273 24.4926 55.9397C24.4926 55.2521 23.935 54.6946 23.2474 54.6946H3.73549C3.0489 54.6946 2.49033 54.136 2.49033 53.4494V39.5534C2.49033 38.8669 3.0489 38.3083 3.73549 38.3083H111.996C112.683 38.3083 113.242 38.8669 113.242 39.5534V53.4494C113.242 54.136 112.683 54.6946 111.996 54.6946H31.6301C30.9426 54.6946 30.385 55.2521 30.385 55.9397C30.385 56.6273 30.9426 57.1849 31.6301 57.1849H96.4219C94.1614 65.3039 89.2966 72.6257 82.6409 77.8885C75.5064 83.5299 66.9165 86.5117 57.7999 86.5117C48.65 86.5117 40.0352 83.5101 32.887 77.8315ZM118.483 107.112C117.746 107.849 116.767 108.255 115.725 108.255C114.682 108.255 113.703 107.849 112.966 107.112L85.0182 79.1643C87.0256 77.4921 88.8702 75.6408 90.5305 73.6415L118.483 101.594C120.004 103.116 120.004 105.591 118.483 107.112Z" fill="#2C248D"/>
<path d="M24.1325 10.5404L19.5729 5.98083L15.0133 10.5404L19.5729 15.1L24.1325 10.5404Z" fill="#2C248D"/>
<path d="M77.5852 98.6578C77.5852 100.288 78.9066 101.609 80.5367 101.609C82.1667 101.609 83.4882 100.288 83.4882 98.6578C83.4882 97.0277 82.1667 95.7063 80.5367 95.7063C78.9066 95.7063 77.5852 97.0277 77.5852 98.6578Z" fill="#F5A623"/>
<path d="M46.7765 104.213L43.5908 101.028L40.4052 104.213L43.5908 107.399L46.7765 104.213Z" stroke="#2C248D" stroke-width="2"/>
<path d="M103.558 23.0995C103.558 24.7295 104.88 26.051 106.51 26.051C108.14 26.051 109.461 24.7295 109.461 23.0995C109.461 21.4694 108.14 20.148 106.51 20.148C104.88 20.148 103.558 21.4694 103.558 23.0995Z" fill="#776CF7"/>
<path d="M12.6523 85.6712C12.6523 87.3013 13.9737 88.6227 15.6038 88.6227C17.2339 88.6227 18.5553 87.3013 18.5553 85.6712C18.5553 84.0411 17.2339 82.7197 15.6038 82.7197C13.9737 82.7197 12.6523 84.0411 12.6523 85.6712Z" fill="#4991E5"/>
<path d="M27.348 47.9648C27.348 48.5846 27.1908 49.1361 26.8764 49.6191C26.5619 50.0977 26.1085 50.4714 25.516 50.7402C24.9236 51.0046 24.2286 51.1367 23.4311 51.1367C22.7657 51.1367 22.2074 51.0911 21.7562 51C21.3051 50.9043 20.8357 50.7402 20.348 50.5078V48.1016C20.863 48.3659 21.3985 48.5732 21.9545 48.7236C22.5105 48.8695 23.0209 48.9424 23.4857 48.9424C23.8868 48.9424 24.1807 48.874 24.3676 48.7373C24.5544 48.596 24.6479 48.416 24.6479 48.1973C24.6479 48.0605 24.6091 47.9421 24.5316 47.8418C24.4587 47.737 24.338 47.6322 24.1693 47.5273C24.0053 47.4225 23.5632 47.2083 22.8432 46.8848C22.1915 46.5885 21.7016 46.3014 21.3734 46.0234C21.0499 45.7454 20.8083 45.4264 20.6488 45.0664C20.4939 44.7064 20.4164 44.2803 20.4164 43.7881C20.4164 42.8675 20.7514 42.1497 21.4213 41.6348C22.0912 41.1198 23.0118 40.8623 24.183 40.8623C25.2175 40.8623 26.2725 41.1016 27.348 41.5801L26.5209 43.665C25.5867 43.2367 24.78 43.0225 24.101 43.0225C23.7501 43.0225 23.4949 43.084 23.3354 43.207C23.1758 43.3301 23.0961 43.4827 23.0961 43.665C23.0961 43.861 23.1964 44.0365 23.3969 44.1914C23.602 44.3464 24.1534 44.6289 25.0512 45.0391C25.9125 45.4264 26.5095 45.8434 26.8422 46.29C27.1794 46.7321 27.348 47.2904 27.348 47.9648ZM38.8866 51H32.953V41.0059H38.8866V43.1729H35.6532V44.7451H38.6473V46.9121H35.6532V48.7988H38.8866V51ZM50.8284 51L50.3362 49.127H47.0891L46.5833 51H43.6165L46.8772 40.9648H50.4798L53.7815 51H50.8284ZM49.7757 46.9121L49.345 45.2715C49.2447 44.9069 49.1217 44.4352 48.9759 43.8564C48.8346 43.2777 48.7412 42.863 48.6956 42.6123C48.6546 42.8447 48.5725 43.2275 48.4495 43.7607C48.331 44.2939 48.0644 45.3444 47.6497 46.9121H49.7757ZM61.6286 47.3633V51H58.9284V41.0059H62.2029C64.919 41.0059 66.2771 41.9902 66.2771 43.959C66.2771 45.1165 65.712 46.012 64.5818 46.6455L67.4939 51H64.4314L62.3122 47.3633H61.6286ZM61.6286 45.333H62.1345C63.0779 45.333 63.5495 44.916 63.5495 44.082C63.5495 43.3939 63.087 43.0498 62.1618 43.0498H61.6286V45.333ZM76.9132 43.0771C76.2707 43.0771 75.7694 43.3415 75.4093 43.8701C75.0493 44.3942 74.8693 45.1188 74.8693 46.0439C74.8693 47.9671 75.6007 48.9287 77.0636 48.9287C77.5057 48.9287 77.9341 48.8672 78.3488 48.7441C78.7635 48.6211 79.1805 48.473 79.5998 48.2998V50.583C78.7658 50.9521 77.8224 51.1367 76.7697 51.1367C75.2612 51.1367 74.1037 50.6992 73.297 49.8242C72.4949 48.9492 72.0939 47.6846 72.0939 46.0303C72.0939 44.9958 72.2876 44.0866 72.675 43.3027C73.0669 42.5189 73.6274 41.9173 74.3566 41.498C75.0903 41.0742 75.9516 40.8623 76.9406 40.8623C78.0207 40.8623 79.0529 41.097 80.0373 41.5664L79.2101 43.6924C78.841 43.5192 78.4718 43.3734 78.1027 43.2549C77.7336 43.1364 77.3371 43.0771 76.9132 43.0771ZM94.1803 51H91.4664V46.9258H88.3287V51H85.6148V41.0059H88.3287V44.7109H91.4664V41.0059H94.1803V51Z" fill="#2C248D"/>
</g>
<defs>
<clipPath id="clip0">
<rect width="123.326" height="110.742" fill="white"/>
</clipPath>
</defs>
</svg>
